<?xml version="1.0" standalone="no"?>
<!DOCTYPE svg PUBLIC "-//W3C//DTD SVG 20010904//EN"
 "http://www.w3.org/TR/2001/REC-SVG-20010904/DTD/svg10.dtd">
<svg version="1.0" xmlns="http://www.w3.org/2000/svg"
 width="873.000000pt" height="873.000000pt" viewBox="0 0 873.000000 873.000000"
 preserveAspectRatio="xMidYMid meet">

<g transform="translate(0.000000,873.000000) scale(0.100000,-0.100000)"
fill="#000000" stroke="none">
<path d="M0 4365 l0 -4365 4365 0 4365 0 0 4365 0 4365 -4365 0 -4365 0 0
-4365z m4560 4025 c525 -30 1000 -146 1470 -359 893 -405 1633 -1158 2023
-2061 147 -341 254 -735 304 -1125 25 -200 25 -738 0 -945 -63 -504 -220
-1003 -448 -1423 -197 -363 -411 -652 -691 -935 -637 -644 -1421 -1033 -2343
-1164 -143 -20 -199 -23 -520 -23 -289 0 -385 4 -485 18 -755 106 -1360 351
-1938 784 -608 456 -1099 1113 -1350 1808 -169 469 -237 829 -249 1315 -11
475 48 886 189 1320 141 434 316 777 580 1140 478 658 1165 1168 1925 1430
409 141 843 217 1303 228 30 1 134 -3 230 -8z"/>
<path d="M4000 7904 c-779 -84 -1478 -399 -2042 -920 -540 -499 -898 -1127
-1062 -1866 -58 -261 -81 -523 -73 -828 8 -306 32 -478 104 -765 89 -352 208
-645 379 -932 140 -234 245 -377 431 -585 201 -224 407 -401 668 -573 475
-314 911 -474 1540 -567 123 -18 663 -18 805 0 445 57 772 155 1175 352 334
163 651 389 915 652 584 583 928 1296 1032 2138 17 136 17 600 0 745 -26 227
-69 436 -128 631 -189 627 -516 1154 -988 1593 -505 469 -1143 783 -1821 895
-274 46 -672 59 -935 30z m745 -118 c934 -110 1783 -596 2347 -1341 379 -501
607 -1082 680 -1730 16 -143 16 -528 -1 -675 -49 -453 -153 -806 -352 -1200
-182 -361 -347 -589 -638 -881 -192 -192 -298 -281 -508 -423 -432 -291 -891
-469 -1432 -553 -165 -26 -196 -28 -491 -27 -294 0 -326 2 -485 27 -536 86
-979 257 -1410 543 -203 134 -338 246 -531 438 -284 284 -454 518 -633 876
-251 502 -365 982 -364 1540 0 638 163 1226 490 1768 152 252 304 446 518 658
388 384 807 643 1335 825 254 88 545 145 885 173 94 7 470 -4 590 -18z"/>
<path d="M3832 7363 c-23 -9 -42 -61 -42 -116 l0 -54 -39 -11 c-139 -42 -265
-172 -311 -319 -19 -62 -20 -92 -20 -688 0 -596 1 -626 20 -688 54 -173 204
-306 380 -337 44 -8 223 -10 560 -8 473 3 497 4 550 24 165 63 287 199 320
358 7 36 10 252 8 682 l-3 629 -28 65 c-51 122 -147 222 -253 265 -56 23 -59
26 -62 62 -7 107 -29 143 -88 143 -55 0 -84 -36 -84 -105 l0 -55 -390 0 -390
0 0 55 c0 46 -4 60 -25 80 -23 24 -69 32 -103 18z m908 -320 c8 -80 52 -117
113 -94 29 11 57 62 57 101 0 27 18 25 71 -8 114 -73 172 -181 173 -327 l1
-90 -815 0 -815 0 1 90 c2 116 27 185 96 261 48 52 92 82 146 98 20 7 22 4 22
-26 1 -93 91 -139 150 -76 15 16 20 35 20 75 l0 53 388 -2 387 -3 5 -52z m415
-1048 c0 -448 0 -450 -23 -507 -33 -81 -108 -160 -190 -200 l-67 -33 -535 0
-535 0 -67 33 c-82 40 -157 119 -190 200 -23 56 -23 63 -26 496 -2 241 -1 445
2 453 5 11 142 13 818 11 l813 -3 0 -450z"/>
<path d="M4295 6998 c-103 -36 -136 -161 -64 -243 100 -113 283 -19 254 131
-8 46 -58 101 -103 114 -44 12 -48 12 -87 -2z m94 -104 c12 -15 21 -32 21 -39
0 -27 -41 -65 -70 -65 -29 0 -70 38 -70 65 0 27 41 65 70 65 19 0 36 -9 49
-26z"/>
<path d="M4558 6383 c-20 -5 -61 -103 -52 -126 7 -19 39 -31 55 -21 6 3 20 27
31 51 28 64 14 106 -34 96z"/>
<path d="M4132 6368 c-17 -17 -15 -43 8 -88 23 -46 34 -53 60 -45 30 10 33 40
8 92 -24 50 -52 65 -76 41z"/>
<path d="M4385 6170 c-30 -15 -75 -66 -183 -204 -78 -102 -147 -199 -154 -216
-15 -43 3 -101 43 -134 19 -16 89 -44 191 -77 182 -58 207 -58 263 2 l30 31
-3 251 c-3 212 -6 257 -20 286 -34 69 -102 94 -167 61z m73 -102 c17 -17 17
-302 0 -296 -7 3 -57 20 -111 38 -54 17 -97 36 -95 41 7 21 173 229 183 229 6
0 16 -5 23 -12z m-128 -363 c74 -25 138 -49 143 -54 13 -13 -2 -51 -20 -51
-33 0 -295 93 -300 106 -8 22 4 44 25 44 10 0 78 -20 152 -45z"/>
<path d="M4810 6077 c-38 -19 -45 -27 -45 -51 0 -43 22 -51 77 -27 60 25 76
53 48 81 -24 24 -24 24 -80 -3z"/>
<path d="M3842 6078 c-7 -7 -12 -23 -12 -35 0 -19 10 -28 46 -43 57 -25 81
-25 94 -1 15 30 1 51 -47 72 -52 22 -65 23 -81 7z"/>
<path d="M4770 5695 c-19 -23 -7 -48 35 -72 45 -26 83 -26 99 0 15 23 -1 47
-45 69 -42 21 -73 22 -89 3z"/>
<path d="M3888 5678 c-49 -21 -62 -39 -53 -68 10 -30 35 -31 92 -5 48 22 54
28 51 51 -4 39 -35 46 -90 22z"/>
<path d="M4526 5444 c-9 -8 -16 -20 -16 -25 0 -23 43 -108 57 -113 21 -9 53
12 53 34 0 32 -31 100 -51 110 -23 13 -25 13 -43 -6z"/>
<path d="M4174 5442 c-6 -4 -20 -30 -30 -59 -15 -43 -16 -54 -4 -68 23 -27 53
-14 77 35 27 54 28 64 7 84 -17 17 -33 20 -50 8z"/>
<path d="M2505 4504 c-133 -16 -250 -69 -333 -151 -87 -86 -130 -208 -112
-316 22 -138 80 -192 460 -431 170 -107 215 -144 236 -193 35 -81 1 -178 -80
-228 -48 -29 -54 -30 -165 -29 -140 0 -167 9 -303 100 -54 36 -106 64 -116 62
-25 -5 -68 -141 -56 -176 20 -58 238 -132 389 -132 210 0 411 114 487 276 45
96 51 199 16 276 -48 105 -106 153 -387 329 -260 162 -301 203 -301 296 1 100
73 168 191 179 110 11 195 -19 315 -111 53 -41 67 -43 86 -12 25 37 50 127 44
152 -15 60 -236 124 -371 109z"/>
<path d="M3408 4492 c-23 -5 -23 -3 -58 -642 -17 -305 -33 -571 -36 -590 -13
-78 -53 -123 -125 -140 -51 -12 -58 -24 -39 -61 10 -18 23 -19 218 -19 219 0
232 3 232 45 0 17 -9 25 -39 33 -21 7 -50 21 -64 33 -48 37 -51 70 -38 401 13
339 20 430 31 423 5 -3 98 -177 209 -388 110 -210 215 -410 233 -444 38 -72
61 -88 113 -79 39 8 37 5 80 121 15 39 106 231 203 428 126 256 179 353 183
340 8 -19 40 -578 39 -679 0 -81 -26 -122 -97 -149 -47 -18 -51 -22 -46 -45 3
-14 8 -28 10 -32 2 -5 122 -8 267 -8 276 0 286 2 286 46 0 18 -9 24 -50 34
-65 16 -105 60 -118 132 -8 40 -74 1148 -72 1216 0 19 -41 31 -71 20 -23 -8
-66 -90 -300 -564 -151 -305 -278 -553 -284 -551 -5 2 -143 253 -305 557 -309
578 -307 574 -362 562z"/>
<path d="M5855 4488 c-61 -11 -75 -22 -75 -59 0 -16 -13 -68 -29 -116 -27 -86
-392 -937 -450 -1050 -37 -73 -92 -128 -145 -146 -30 -10 -42 -20 -44 -37 -2
-12 2 -27 10 -31 7 -5 110 -9 229 -9 228 0 246 3 237 46 -2 13 -81 49 -115 54
-8 1 -33 63 -33 82 1 43 49 163 75 186 26 22 30 22 306 22 323 0 307 5 348
-105 35 -93 38 -136 10 -168 -13 -15 -42 -33 -64 -40 -42 -15 -55 -38 -35 -62
18 -22 542 -22 560 0 21 25 7 48 -38 63 -95 31 -112 65 -452 860 -123 287
-228 521 -234 521 -6 -1 -33 -6 -61 -11z m-22 -360 c3 -7 55 -132 116 -276 61
-145 111 -273 111 -283 0 -18 -11 -19 -239 -19 -132 0 -242 4 -245 8 -6 10
234 582 244 582 4 0 10 -6 13 -12z"/>
<path d="M2517 2362 c-31 -34 -21 -60 30 -84 49 -24 56 -36 30 -52 -12 -7 -21
-5 -36 8 -12 11 -27 16 -37 12 -29 -11 17 -50 60 -50 44 0 68 20 64 53 -2 20
-14 31 -50 49 -27 12 -48 27 -48 33 0 17 30 22 55 9 36 -19 53 -8 27 18 -27
27 -73 29 -95 4z"/>
<path d="M2677 2373 c-4 -3 -7 -44 -7 -90 0 -67 3 -83 15 -83 12 0 15 17 15
90 0 83 -5 101 -23 83z"/>
<path d="M2767 2362 c-31 -34 -22 -61 29 -83 31 -14 44 -26 42 -37 -4 -23 -32
-26 -52 -7 -22 22 -54 12 -35 -11 47 -57 144 -28 124 37 -4 12 -26 29 -51 39
-24 11 -44 24 -44 30 0 18 30 23 55 10 36 -19 53 -8 27 18 -27 27 -73 29 -95
4z"/>
<path d="M2907 2373 c-13 -12 -7 -23 13 -23 18 0 20 -7 20 -75 0 -68 2 -75 20
-75 18 0 20 7 20 71 0 62 2 71 20 76 11 3 20 12 20 19 0 10 -15 14 -53 14 -30
0 -57 -3 -60 -7z"/>
<path d="M3057 2373 c-4 -3 -7 -44 -7 -90 l0 -83 50 0 c38 0 50 4 50 15 0 10
-10 15 -30 15 -23 0 -30 4 -30 20 0 16 7 20 30 20 20 0 30 5 30 15 0 10 -10
15 -31 15 -26 0 -30 3 -27 23 2 16 11 23 31 25 47 6 33 32 -16 32 -24 0 -47
-3 -50 -7z"/>
<path d="M3206 2368 c-2 -7 -7 -48 -10 -90 -5 -62 -3 -78 8 -78 18 0 26 22 26
71 0 55 16 48 36 -16 10 -30 23 -55 30 -55 7 0 21 25 30 55 18 57 34 72 34 31
0 -46 13 -86 27 -86 13 0 14 13 8 83 -4 45 -11 86 -15 90 -18 20 -44 0 -59
-45 -9 -26 -19 -49 -22 -53 -4 -3 -15 18 -25 47 -15 40 -25 54 -42 56 -12 2
-24 -3 -26 -10z"/>
<path d="M3526 2372 c-3 -5 -8 -46 -12 -90 -6 -70 -5 -82 8 -82 11 0 18 15 23
55 3 30 10 53 15 50 5 -3 16 -28 25 -56 10 -28 22 -48 28 -46 7 2 20 27 31 55
10 28 22 49 27 46 5 -3 9 -27 9 -55 0 -42 3 -49 19 -49 18 0 19 6 15 58 -10
112 -13 124 -37 120 -15 -2 -26 -16 -38 -48 -9 -24 -21 -46 -27 -48 -5 -1 -18
20 -27 47 -12 37 -22 51 -35 51 -10 0 -21 -4 -24 -8z"/>
<path d="M3805 2368 c-2 -7 -16 -44 -30 -82 -14 -37 -25 -72 -25 -77 0 -15 27
-10 34 6 3 10 19 15 46 15 27 0 43 -5 46 -15 6 -16 34 -21 34 -7 0 4 -13 44
-29 88 -22 61 -34 80 -50 82 -12 2 -23 -3 -26 -10z m44 -68 c8 -25 7 -32 -4
-37 -8 -3 -22 -3 -30 0 -11 5 -12 12 -4 37 6 16 15 30 19 30 4 0 13 -14 19
-30z"/>
<path d="M3957 2373 c-4 -3 -7 -44 -7 -90 0 -67 3 -83 15 -83 12 0 15 13 15
55 0 30 4 55 9 55 6 0 25 -25 43 -55 24 -41 38 -55 56 -55 22 0 23 2 20 88 -2
69 -6 87 -18 87 -11 0 -16 -16 -20 -60 l-5 -60 -38 63 c-36 58 -54 72 -70 55z"/>
<path d="M4206 2372 c-3 -5 -18 -45 -35 -90 -28 -77 -29 -82 -10 -82 10 0 19
7 19 15 0 11 12 15 44 15 30 0 46 -5 50 -15 7 -18 40 -20 34 -2 -56 154 -62
167 -79 167 -10 0 -20 -4 -23 -8z m38 -64 c10 -38 7 -48 -13 -48 -27 0 -33 14
-20 44 15 32 25 33 33 4z"/>
<path d="M4397 2374 c-4 -4 -7 -38 -7 -75 0 -66 -1 -68 -27 -71 -33 -4 -41
-24 -12 -31 37 -10 67 9 74 45 14 74 -4 156 -28 132z"/>
<path d="M4480 2291 l0 -91 51 0 c57 0 66 23 11 28 -24 2 -32 8 -32 23 0 14 7
19 30 19 20 0 30 5 30 15 0 10 -10 15 -31 15 -26 0 -30 3 -27 23 2 17 11 23
36 25 49 5 34 26 -21 30 l-47 3 0 -90z"/>
<path d="M4626 2338 c-15 -124 -15 -138 5 -138 16 0 19 8 19 49 0 28 4 52 9
56 5 3 18 -18 29 -47 11 -29 24 -54 30 -56 5 -1 16 14 22 35 7 21 17 47 23 58
10 19 11 19 18 -5 4 -14 7 -40 8 -57 1 -22 6 -33 16 -33 17 0 19 38 9 128 -6
46 -10 52 -30 52 -18 0 -26 -9 -39 -50 -9 -27 -20 -52 -25 -55 -4 -2 -16 19
-26 48 -14 38 -25 53 -41 55 -19 3 -22 -3 -27 -40z"/>
<path d="M4870 2290 l0 -90 50 0 c38 0 50 4 50 15 0 10 -11 15 -35 15 -28 0
-35 4 -35 20 0 16 7 20 30 20 20 0 30 5 30 15 0 10 -10 15 -31 15 -26 0 -30 3
-27 23 2 17 11 23 36 25 20 2 32 9 32 18 0 10 -13 14 -50 14 l-50 0 0 -90z"/>
<path d="M5017 2373 c-4 -3 -7 -44 -7 -90 0 -76 2 -83 20 -83 16 0 19 8 22 58
l3 57 37 -57 c25 -39 44 -58 58 -58 19 0 20 6 20 90 0 73 -3 90 -15 90 -12 0
-15 -13 -15 -60 0 -33 -3 -60 -8 -60 -4 0 -24 27 -45 60 -34 56 -54 70 -70 53z"/>
<path d="M5329 2353 c-61 -157 -60 -153 -39 -153 11 0 20 7 20 15 0 11 12 15
44 15 30 0 46 -5 50 -15 5 -13 36 -22 36 -11 0 3 -14 43 -31 90 -24 68 -35 86
-50 86 -12 0 -24 -11 -30 -27z m45 -45 c10 -38 7 -48 -12 -48 -27 0 -32 8 -20
41 12 35 23 37 32 7z"/>
<path d="M5515 2369 c-33 -19 -45 -41 -45 -84 0 -70 58 -111 121 -85 38 16 59
50 30 50 -11 0 -23 -4 -26 -10 -9 -14 -68 -13 -83 2 -16 16 -15 73 1 85 24 19
45 21 73 7 42 -22 61 -15 38 14 -22 26 -80 38 -109 21z"/>
<path d="M5723 2368 c-5 -7 -20 -42 -33 -78 -12 -36 -25 -71 -27 -77 -3 -7 2
-13 11 -13 9 0 19 7 22 15 4 10 20 15 50 15 32 0 44 -4 44 -15 0 -8 9 -15 20
-15 19 0 18 4 -11 81 -16 45 -32 86 -35 90 -8 13 -30 11 -41 -3z m39 -78 c2
-19 -2 -26 -19 -28 -26 -4 -30 16 -12 50 13 24 27 14 31 -22z"/>
<path d="M5868 2374 c-5 -4 -8 -45 -8 -91 0 -76 2 -83 20 -83 16 0 20 7 20 35
0 19 4 35 8 35 5 0 17 -16 28 -35 10 -20 26 -35 36 -35 23 0 23 5 -3 41 -19
28 -20 31 -5 48 18 19 21 48 7 70 -10 15 -92 27 -103 15z m71 -33 c19 -12 6
-41 -19 -41 -13 0 -20 7 -20 18 0 31 14 39 39 23z"/>
<path d="M6051 2300 c-17 -45 -31 -86 -31 -91 0 -15 27 -10 34 6 3 10 19 15
46 15 27 0 43 -5 46 -15 7 -18 34 -20 33 -2 0 6 -13 46 -28 87 -21 56 -34 76
-49 78 -17 3 -25 -10 -51 -78z m68 0 c8 -25 7 -32 -4 -37 -8 -3 -21 -3 -29 0
-12 5 -13 11 -3 36 14 39 22 39 36 1z"/>
</g>
</svg>
